<svg xmlns="http://www.w3.org/2000/svg" width="128" height="128" viewBox="0 0 128 128">
  <!-- Background gradient - Azure blue theme -->
  <defs>
    <linearGradient id="azureGrad" x1="0%" y1="0%" x2="100%" y2="100%">
      <stop offset="0%" style="stop-color:#0078D4;stop-opacity:1" />
      <stop offset="100%" style="stop-color:#0063B1;stop-opacity:1" />
    </linearGradient>
    <linearGradient id="lightBlue" x1="0%" y1="0%" x2="100%" y2="100%">
      <stop offset="0%" style="stop-color:#50E6FF;stop-opacity:1" />
      <stop offset="100%" style="stop-color:#00BCF2;stop-opacity:1" />
    </linearGradient>
  </defs>

  <!-- Background rounded square -->
  <rect x="8" y="8" width="112" height="112" rx="24" fill="url(#azureGrad)"/>

  <!-- Logic App workflow diagram -->
  <g fill="white">
    <!-- Top trigger node (diamond shape) -->
    <path d="M 64 20 L 76 32 L 64 44 L 52 32 Z" fill="url(#lightBlue)"/>

    <!-- Connector line -->
    <line x1="64" y1="44" x2="64" y2="54" stroke="white" stroke-width="2.5"/>

    <!-- Branch point -->
    <circle cx="64" cy="54" r="3" fill="white"/>

    <!-- Left branch -->
    <line x1="64" y1="54" x2="35" y2="54" stroke="white" stroke-width="2.5"/>
    <line x1="35" y1="54" x2="35" y2="70" stroke="white" stroke-width="2.5"/>
    <!-- Left action box -->
    <rect x="25" y="70" width="20" height="18" rx="4" fill="white"/>
    <rect x="27" y="72" width="16" height="14" rx="3" fill="url(#azureGrad)"/>
    <line x1="35" y1="88" x2="35" y2="100" stroke="white" stroke-width="2.5"/>
    <circle cx="35" cy="104" r="5" fill="#50E6FF"/>

    <!-- Right branch -->
    <line x1="64" y1="54" x2="93" y2="54" stroke="white" stroke-width="2.5"/>
    <line x1="93" y1="54" x2="93" y2="70" stroke="white" stroke-width="2.5"/>
    <!-- Right action box -->
    <rect x="83" y="70" width="20" height="18" rx="4" fill="white"/>
    <rect x="85" y="72" width="16" height="14" rx="3" fill="url(#azureGrad)"/>
    <line x1="93" y1="88" x2="93" y2="100" stroke="white" stroke-width="2.5"/>
    <circle cx="93" cy="104" r="5" fill="#50E6FF"/>
  </g>

</svg>
