<svg xmlns="http://www.w3.org/2000/svg" width="128" height="128" viewBox="0 0 128 128">
  <!-- Background gradient - Grayscale/inactive theme -->
  <defs>
    <linearGradient id="grayGrad" x1="0%" y1="0%" x2="100%" y2="100%">
      <stop offset="0%" style="stop-color:#8b8b8b;stop-opacity:1" />
      <stop offset="100%" style="stop-color:#6b6b6b;stop-opacity:1" />
    </linearGradient>
    <linearGradient id="lightGray" x1="0%" y1="0%" x2="100%" y2="100%">
      <stop offset="0%" style="stop-color:#b0b0b0;stop-opacity:1" />
      <stop offset="100%" style="stop-color:#9a9a9a;stop-opacity:1" />
    </linearGradient>
  </defs>

  <!-- Background rounded square -->
  <rect x="8" y="8" width="112" height="112" rx="24" fill="url(#grayGrad)"/>

  <!-- Logic App workflow diagram -->
  <g fill="white" opacity="0.7">
    <!-- Top trigger node (diamond shape) -->
    <path d="M 64 20 L 76 32 L 64 44 L 52 32 Z" fill="url(#lightGray)"/>

    <!-- Connector line -->
    <line x1="64" y1="44" x2="64" y2="54" stroke="white" stroke-width="2.5" opacity="0.5"/>

    <!-- Branch point -->
    <circle cx="64" cy="54" r="3" fill="white" opacity="0.5"/>

    <!-- Left branch -->
    <line x1="64" y1="54" x2="35" y2="54" stroke="white" stroke-width="2.5" opacity="0.5"/>
    <line x1="35" y1="54" x2="35" y2="70" stroke="white" stroke-width="2.5" opacity="0.5"/>
    <!-- Left action box -->
    <rect x="25" y="70" width="20" height="18" rx="4" fill="white" opacity="0.5"/>
    <rect x="27" y="72" width="16" height="14" rx="3" fill="url(#grayGrad)"/>
    <line x1="35" y1="88" x2="35" y2="100" stroke="white" stroke-width="2.5" opacity="0.5"/>
    <circle cx="35" cy="104" r="5" fill="#b0b0b0"/>

    <!-- Right branch -->
    <line x1="64" y1="54" x2="93" y2="54" stroke="white" stroke-width="2.5" opacity="0.5"/>
    <line x1="93" y1="54" x2="93" y2="70" stroke="white" stroke-width="2.5" opacity="0.5"/>
    <!-- Right action box -->
    <rect x="83" y="70" width="20" height="18" rx="4" fill="white" opacity="0.5"/>
    <rect x="85" y="72" width="16" height="14" rx="3" fill="url(#grayGrad)"/>
    <line x1="93" y1="88" x2="93" y2="100" stroke="white" stroke-width="2.5" opacity="0.5"/>
    <circle cx="93" cy="104" r="5" fill="#b0b0b0"/>
  </g>
</svg>
